<?xml version="1.0" encoding="UTF-8"?>
<svg version="1.1" xmlns="http://www.w3.org/2000/svg" width="1024" height="1024">
<path d="M0 0 C3.45462751 3.16689833 6.76970526 6.46573997 10.08447266 9.77807617 C11.07059533 10.75656134 12.05711286 11.7346487 13.04399109 12.71237183 C15.70372114 15.35031183 18.35699353 17.99465185 21.00840044 20.64095473 C22.66985703 22.29875051 24.33260023 23.95524497 25.9957695 25.6113224 C31.81114681 31.40226291 37.62083249 37.19885069 43.42578125 43.00024414 C48.81603876 48.3868668 54.21928985 53.76021106 59.62861788 59.12767619 C64.29084757 63.75509936 68.94329655 68.39220924 73.58850324 73.0367201 C76.3549081 75.80233594 79.12505581 78.56391785 81.90535355 81.31557274 C84.52182555 83.90568438 87.12581598 86.50774871 89.72115517 89.11903 C91.11668138 90.51720668 92.52447469 91.90310684 93.93275452 93.28843689 C103.13583168 102.59766151 108.92686105 112.34565807 109.02734375 125.609375 C108.50217409 139.02140028 104.68687329 148.19138889 95.2734375 157.75390625 C87.32596054 164.99373115 78.12436439 168.30696598 67.42477417 168.27415466 C66.57465197 168.27939134 65.72452976 168.28462802 64.84864628 168.29002339 C62.00695974 168.30499565 59.16545371 168.30572794 56.32373047 168.30639648 C54.28322548 168.31401997 52.24272335 168.32244779 50.20222473 168.33161926 C44.66268921 168.35355577 39.1232089 168.36236235 33.58363485 168.36744571 C30.11973639 168.37109107 26.65585234 168.37733215 23.19195938 168.3844471 C11.0986696 168.40894117 -0.99457731 168.42199286 -13.08789062 168.42553711 C-24.34525775 168.42916964 -35.60235177 168.45904508 -46.85963547 168.50094169 C-56.53545725 168.53568489 -66.21118873 168.55108627 -75.88707244 168.55178314 C-81.66105688 168.55257474 -87.43476324 168.5612596 -93.20868301 168.58978081 C-98.64413502 168.6160294 -104.07907976 168.61812853 -109.51456642 168.60212517 C-111.50266314 168.60031594 -113.49078947 168.60695351 -115.47882271 168.62294388 C-129.76240958 168.73076922 -142.13991694 167.34405319 -153 157 C-162.72565907 146.43557772 -165.4374782 136.00401935 -165.21484375 121.94921875 C-164.48068979 108.45413409 -156.45556858 98.85678349 -147.21191406 89.69433594 C-146.22003888 88.6970295 -145.22901421 87.69887658 -144.23876953 86.69995117 C-141.56598895 84.00905367 -138.88085372 81.33082121 -136.19264698 78.65534496 C-133.36945905 75.84234532 -130.55611281 73.01952903 -127.7411499 70.19830322 C-123.01396134 65.46385515 -118.27844254 60.73786255 -113.53808594 56.01660156 C-108.07228387 50.57256488 -102.62104033 45.11426877 -97.1771338 39.6483438 C-92.48707199 34.94007956 -87.78919689 30.2397182 -83.0848062 25.54577088 C-80.28196018 22.74913321 -77.4818205 19.94992936 -74.68872833 17.14354706 C-72.06130862 14.50449876 -69.42415434 11.87556742 -66.77944946 9.25384521 C-65.35877965 7.84091226 -63.94783453 6.41822193 -62.53729248 4.99517822 C-44.60800851 -12.69987818 -20.24585847 -16.57100686 0 0 Z " fill="#01BF63" transform="translate(541,491)"/>
<path d="M0 0 C7.71160324 5.9142998 14.59073026 12.95037142 21.46965408 19.79291725 C22.34905151 20.66413719 23.22844894 21.53535713 24.13449478 22.43297768 C27.00864158 25.28255309 29.87893832 28.13595282 32.7479744 30.99067116 C33.74524848 31.98257224 34.74252481 32.97447108 35.73980331 33.96636772 C39.88914533 38.09415645 44.03707741 42.22335345 48.18132019 46.35626221 C54.0790165 52.23770722 59.98506973 58.11046654 65.90300632 63.97154748 C70.08959328 68.11929815 74.26642363 72.27671788 78.43627286 76.44129431 C80.91623597 78.91762797 83.40009054 81.38971619 85.89454269 83.85146141 C88.67706093 86.59799915 91.43923209 89.36447605 94.20012283 92.132761 C95.01375793 92.92999077 95.82739304 93.72722054 96.66568375 94.54860878 C107.3484316 105.34836264 110.36065064 115.126582 110.3182869 129.87446022 C110.10814571 144.43199098 105.18135618 159.745612 94.8885994 170.46723366 C91.64386849 173.5138652 88.38380634 175.35607693 83.90031815 175.81488991 C79.33999855 175.47307436 76.60827877 174.57524965 73.21338272 171.45394325 C72.52183908 170.82102427 71.83029545 170.18810528 71.11779594 169.53600693 C68.09019327 166.65361328 65.11891307 163.72696417 62.19206619 160.74238014 C61.55507797 160.09750648 60.91808975 159.45263283 60.26179886 158.78821754 C58.89294197 157.40230138 57.52515309 156.01532967 56.15834999 154.627388 C53.23799645 151.66455271 50.30795625 148.7113743 47.3785181 145.75752544 C41.94149482 140.27499675 36.50838271 134.78873477 31.09196854 129.28583717 C27.30709743 125.44128474 23.50987793 121.60930874 19.70443535 117.78512192 C18.26590444 116.33492144 16.83189685 114.88021824 15.40273476 113.420784 C5.72796799 103.54625909 -4.10075057 93.5751174 -18.62311935 92.25629616 C-33.03177832 92.11517315 -44.0429272 95.82679261 -54.66125107 105.98900795 C-55.90457266 107.23276698 -57.13984472 108.48461194 -58.3679924 109.7433567 C-59.05217239 110.4319175 -59.73635239 111.12047829 -60.44126511 111.82990456 C-61.91122451 113.31119508 -63.37771158 114.79593818 -64.84099007 116.28382874 C-67.15909431 118.64052629 -69.48670669 120.98745777 -71.81692123 123.33217812 C-76.75692509 128.30630254 -81.68499602 133.29214491 -86.6114006 138.27973366 C-92.33349889 144.07273258 -98.06043739 149.86077025 -103.80016136 155.63631058 C-106.08964414 157.94519354 -108.36988385 160.26294347 -110.64989853 162.58117104 C-112.0554837 163.99765491 -113.46149242 165.41371868 -114.8679924 166.8292942 C-115.49618378 167.47298454 -116.12437515 168.11667488 -116.77160263 168.77987099 C-120.6704161 172.68007576 -124.51919466 176.28013561 -130.2676506 176.80707741 C-137.82637786 175.83484981 -142.62544037 172.6438856 -147.41218185 166.76410866 C-156.70487233 153.41336988 -159.98924901 137.64722098 -158.9239006 121.59223366 C-157.38683242 113.24966358 -154.65137224 106.10259064 -148.82390976 99.81580544 C-148.02459974 98.95219147 -147.22528973 98.0885775 -146.40175819 97.19879341 C-142.49244324 93.0864251 -138.52927212 89.03371313 -134.52375412 85.01508522 C-133.63142075 84.11618065 -132.73908737 83.21727608 -131.81971359 82.29113197 C-128.90088558 79.35157527 -125.97701001 76.4170667 -123.05280685 73.48285866 C-122.03732936 72.4633241 -121.02188198 71.44375956 -120.006464 70.42416573 C-115.23884133 65.63757263 -110.46886542 60.85334016 -105.69594246 56.07203221 C-100.2174133 50.58371307 -94.74728948 45.08718942 -89.28405625 39.58364511 C-85.03605419 35.30539291 -80.78031859 31.03493171 -76.51881737 26.7701261 C-73.98403557 24.23300737 -71.45258627 21.69277277 -68.92933464 19.14418221 C-66.11513273 16.30216604 -63.28505133 13.47647658 -60.45344162 10.65180397 C-59.22415184 9.4032991 -59.22415184 9.4032991 -57.97002792 8.12957191 C-42.18274105 -7.51775567 -19.47213619 -13.68416502 0 0 Z " fill="#5801FF" transform="translate(536.923900604248,369.4077663421631)"/>
<path d="M0 0 C3.1978969 2.94771336 6.25700091 6.02283512 9.3125 9.1171875 C10.16682617 9.97434357 11.02115234 10.83149963 11.90136719 11.71463013 C14.60567921 14.43005941 17.30291993 17.15238944 20 19.875 C21.84198365 21.72702436 23.684427 23.57859164 25.52734375 25.4296875 C30.02355981 29.94785169 34.51400442 34.47168914 39 39 C36 40 36 40 33.18359375 39.94140625 C12.00953775 40.3311128 -11.99851412 63.38367631 -27.09375 76.4921875 C-29.85022342 78.8707573 -32.65962943 81.16030636 -35.5 83.4375 C-41.40356024 88.24112471 -46.93481853 93.41024033 -52.49365234 98.60253906 C-54.59683376 100.55369148 -56.73435591 102.46510528 -58.875 104.375 C-69.14536038 113.6000733 -79.14016585 123.06164585 -88.8527832 132.87207031 C-92.50326395 136.54630269 -96.22419671 140.05078289 -100.17578125 143.40234375 C-105.37636634 147.95703176 -110.16363599 152.96612392 -114.6875 158.1875 C-115.53248047 159.15236328 -115.53248047 159.15236328 -116.39453125 160.13671875 C-117.4377186 161.34742523 -118.45772806 162.57863736 -119.44921875 163.83203125 C-121.43428237 166.15428376 -122.96682147 167.71277637 -125.953125 168.54296875 C-134.98546969 169.14404205 -144.33777166 164.29390599 -151.19140625 158.72265625 C-159.35558898 150.94640445 -164.57639289 141.65751309 -165.203125 130.328125 C-165.4715188 116.3254905 -162.40367754 105.46404641 -152.5869751 95.07904053 C-150.8055094 93.27399376 -149.01310347 91.47970161 -147.21191406 89.69433594 C-146.22003888 88.6970295 -145.22901421 87.69887658 -144.23876953 86.69995117 C-141.56598895 84.00905367 -138.88085372 81.33082121 -136.19264698 78.65534496 C-133.36945905 75.84234532 -130.55611281 73.01952903 -127.7411499 70.19830322 C-123.01396134 65.46385515 -118.27844254 60.73786255 -113.53808594 56.01660156 C-108.07228387 50.57256488 -102.62104033 45.11426877 -97.1771338 39.6483438 C-92.48707199 34.94007956 -87.78919689 30.2397182 -83.0848062 25.54577088 C-80.28196018 22.74913321 -77.4818205 19.94992936 -74.68872833 17.14354706 C-72.06130862 14.50449876 -69.42415434 11.87556742 -66.77944946 9.25384521 C-65.35877965 7.84091226 -63.94783453 6.41822193 -62.53729248 4.99517822 C-44.60438477 -12.70345458 -20.25240601 -16.56638501 0 0 Z " fill="#7DD957" transform="translate(541,491)"/>
<path d="M0 0 C6.73046897 5.54678731 12.87836624 11.65927854 19.06640625 17.79296875 C19.63722364 18.35846247 20.20804104 18.92395618 20.79615593 19.50658607 C23.8148124 22.49866234 26.82988168 25.49430607 29.8425293 28.49243164 C32.31739195 30.95395534 34.79931615 33.40800416 37.2878418 35.85571289 C40.31576015 38.83400068 43.3309233 41.82466927 46.33765984 44.8243351 C47.47553801 45.95555695 48.61762096 47.08256752 49.76419258 48.20497704 C59.92564914 58.16431449 67.01296091 67.27565835 67.2421875 81.94042969 C67.29187907 98.61816224 63.7947985 115.39343906 51.8125 127.875 C48.5677691 130.92163154 45.30770694 132.76384328 40.82421875 133.22265625 C36.26389916 132.8808407 33.53217938 131.98301599 30.13728333 128.86170959 C29.44573969 128.22879061 28.75419605 127.59587162 28.04169655 126.94377327 C25.01409387 124.06137963 22.04281368 121.13473051 19.1159668 118.15014648 C18.47897858 117.50527283 17.84199036 116.86039917 17.18569946 116.19598389 C15.81684257 114.81006773 14.4490537 113.42309601 13.0822506 112.03515434 C10.16189705 109.07231906 7.23185685 106.11914065 4.30241871 103.16529179 C-1.13460458 97.68276309 -6.56771669 92.19650111 -11.98413086 86.69360352 C-15.76900196 82.84905108 -19.56622146 79.01707508 -23.37166405 75.19288826 C-24.81019496 73.74268778 -26.24420254 72.28798458 -27.67336464 70.82855034 C-38.47741147 59.80142874 -48.70255807 50.36514951 -64.875 49.375 C-66.02742187 49.30023438 -67.17984375 49.22546875 -68.3671875 49.1484375 C-69.23601562 49.09945312 -70.10484375 49.05046875 -71 49 C-68.04994394 44.99992399 -64.74265705 41.98867871 -60.8125 39 C-59.900448 38.29713867 -59.900448 38.29713867 -58.9699707 37.58007812 C-57.66183072 36.57312955 -56.35179163 35.56864417 -55.04003906 34.56640625 C-52.98129088 32.98563455 -50.93877949 31.38568757 -48.8984375 29.78125 C-33.47718676 17.7151073 -17.91108128 7.96266511 0 0 Z " fill="#0296FF" transform="translate(580,412)"/>
<path d="M0 0 C-1.48380236 3.44469918 -3.42850741 5.67558307 -6.07485962 8.31536865 C-6.92743851 9.17069687 -7.7800174 10.02602509 -8.65843201 10.90727234 C-9.60504063 11.84680334 -10.55174489 12.78623799 -11.49853516 13.72558594 C-12.49432102 14.7208075 -13.48966639 15.71646998 -14.48460388 16.71253967 C-17.18448469 19.41299428 -19.89048736 22.10723816 -22.59762621 24.80041409 C-25.42659877 27.61688388 -28.24990833 30.43901871 -31.07382202 33.26055908 C-36.42110945 38.60163041 -41.77347467 43.93758304 -47.12768018 49.27171826 C-53.22345189 55.34513503 -59.31354534 61.424232 -65.40316701 67.50381422 C-77.9291342 80.00887648 -90.46221915 92.5067829 -103 105 C-103.66 104.67 -104.32 104.34 -105 104 C-95.22818094 92.97782911 -84.78326421 82.61878285 -74.37305331 72.20579624 C-72.85930465 70.69133031 -71.34627277 69.17615193 -69.83348274 67.66072845 C-64.54928655 62.36734291 -59.26257794 57.07648226 -53.97338867 51.78808594 C-49.04882407 46.86412634 -44.12991414 41.93456609 -39.21350807 37.00246167 C-34.97650489 32.75241334 -30.73568635 28.50619816 -26.49183518 24.26298785 C-23.96331218 21.73471994 -21.43637081 19.20491897 -18.91326714 16.67124176 C-16.11366176 13.86021727 -13.30615182 11.05717336 -10.49780273 8.25488281 C-9.66200684 7.41346741 -8.82621094 6.572052 -7.96508789 5.70513916 C-7.20413315 4.94837891 -6.44317841 4.19161865 -5.65916443 3.41192627 C-4.99685538 2.74907246 -4.33454634 2.08621864 -3.65216732 1.40327835 C-2 0 -2 0 0 0 Z " fill="#5B20FF" transform="translate(488,371)"/>
</svg>
