<?xml version="1.0" standalone="no"?>
<!DOCTYPE svg PUBLIC "-//W3C//DTD SVG 20010904//EN"
 "http://www.w3.org/TR/2001/REC-SVG-20010904/DTD/svg10.dtd">
<svg version="1.0" xmlns="http://www.w3.org/2000/svg"
 width="50.000000pt" height="50.000000pt" viewBox="0 0 50.000000 50.000000"
 preserveAspectRatio="xMidYMid meet">

<g transform="translate(0.000000,50.000000) scale(0.100000,-0.100000)"
fill="#ffffff" stroke="#FFFF">
<path d="M228 485 c-15 -8 -32 -30 -39 -49 -20 -55 -49 -61 -119 -26 -33 17
-62 30 -65 30 -3 0 -5 -85 -5 -188 l0 -188 65 -32 65 -32 59 30 59 29 67 -30
66 -30 59 32 60 32 0 188 c0 104 -3 189 -7 189 -5 0 -32 -13 -60 -29 -48 -27
-53 -27 -53 -11 0 76 -83 122 -152 85z m109 -31 c21 -21 25 -32 20 -65 -5 -39
-35 -108 -62 -143 -15 -20 -15 -20 -30 0 -27 35 -57 104 -62 143 -11 78 78
121 134 65z m-257 -69 c36 -18 55 -23 72 -16 21 7 25 2 55 -58 18 -36 42 -77
53 -91 l20 -25 20 25 c11 14 32 50 48 81 23 48 35 60 80 83 l52 26 0 -168 0
-167 -50 -27 -49 -27 -65 29 -66 30 -60 -30 -59 -30 -56 27 -55 27 0 168 c0
92 2 168 5 168 3 0 28 -11 55 -25z"/>
<path d="M246 424 c-31 -30 -9 -84 34 -84 24 0 50 26 50 50 0 24 -26 50 -50
50 -10 0 -26 -7 -34 -16z m59 -34 c0 -18 -6 -26 -23 -28 -13 -2 -25 3 -28 12
-10 26 4 48 28 44 17 -2 23 -10 23 -28z"/>
</g>
</svg>
